<mxfile host="app.diagrams.net" agent="Mozilla/5.0 (Macintosh; Intel Mac OS X 10_15_7) AppleWebKit/605.1.15 (KHTML, like Gecko) Version/17.4 Safari/605.1.15" version="24.7.12">
  <diagram name="Page-1" id="4XqVKYdgBiRDm-ss3GNa">
    <mxGraphModel dx="1034" dy="1375" grid="1" gridSize="10" guides="1" tooltips="1" connect="1" arrows="1" fold="1" page="0" pageScale="1" pageWidth="850" pageHeight="1100" math="0" shadow="0">
      <root>
        <mxCell id="0" />
        <mxCell id="1" parent="0" />
        <mxCell id="VyGet-gFBxRApP3kLGEh-1" value="Product" style="rounded=1;whiteSpace=wrap;html=1;" parent="1" vertex="1">
          <mxGeometry x="312" y="-120" width="135" height="40" as="geometry" />
        </mxCell>
        <mxCell id="VyGet-gFBxRApP3kLGEh-2" value="id" style="ellipse;whiteSpace=wrap;html=1;" parent="1" vertex="1">
          <mxGeometry x="90" y="-110" width="70" height="30" as="geometry" />
        </mxCell>
        <mxCell id="VyGet-gFBxRApP3kLGEh-3" value="manufacturer_name" style="ellipse;whiteSpace=wrap;html=1;" parent="1" vertex="1">
          <mxGeometry x="492.25" y="-95" width="130" height="40" as="geometry" />
        </mxCell>
        <mxCell id="VyGet-gFBxRApP3kLGEh-4" value="place_of_origin" style="ellipse;whiteSpace=wrap;html=1;" parent="1" vertex="1">
          <mxGeometry x="258" y="-55" width="110" height="35" as="geometry" />
        </mxCell>
        <mxCell id="VyGet-gFBxRApP3kLGEh-5" value="shelf_life" style="ellipse;whiteSpace=wrap;html=1;" parent="1" vertex="1">
          <mxGeometry x="185.75" y="-30" width="70" height="30" as="geometry" />
        </mxCell>
        <mxCell id="VyGet-gFBxRApP3kLGEh-6" value="composition" style="ellipse;whiteSpace=wrap;html=1;" parent="1" vertex="1">
          <mxGeometry x="517.25" y="-50" width="80" height="30" as="geometry" />
        </mxCell>
        <mxCell id="VyGet-gFBxRApP3kLGEh-7" value="storage_temperature" style="ellipse;whiteSpace=wrap;html=1;" parent="1" vertex="1">
          <mxGeometry x="620" y="-105" width="130" height="35" as="geometry" />
        </mxCell>
        <mxCell id="VyGet-gFBxRApP3kLGEh-8" value="importer" style="ellipse;whiteSpace=wrap;html=1;" parent="1" vertex="1">
          <mxGeometry x="400" y="-50" width="80" height="30" as="geometry" />
        </mxCell>
        <mxCell id="VyGet-gFBxRApP3kLGEh-10" value="manufacturing_date" style="ellipse;whiteSpace=wrap;html=1;" parent="1" vertex="1">
          <mxGeometry x="100" y="-70" width="130" height="40" as="geometry" />
        </mxCell>
        <mxCell id="VyGet-gFBxRApP3kLGEh-17" value="" style="endArrow=none;html=1;rounded=0;exitX=1;exitY=0.5;exitDx=0;exitDy=0;entryX=0;entryY=0.25;entryDx=0;entryDy=0;" parent="1" source="VyGet-gFBxRApP3kLGEh-2" target="VyGet-gFBxRApP3kLGEh-1" edge="1">
          <mxGeometry width="50" height="50" relative="1" as="geometry">
            <mxPoint x="400" y="50" as="sourcePoint" />
            <mxPoint x="450" as="targetPoint" />
          </mxGeometry>
        </mxCell>
        <mxCell id="VyGet-gFBxRApP3kLGEh-9" value="name" style="ellipse;whiteSpace=wrap;html=1;" parent="1" vertex="1">
          <mxGeometry x="200" y="-95" width="70" height="30" as="geometry" />
        </mxCell>
        <mxCell id="VyGet-gFBxRApP3kLGEh-18" value="" style="endArrow=none;html=1;rounded=0;exitX=1;exitY=0.5;exitDx=0;exitDy=0;entryX=0;entryY=0.5;entryDx=0;entryDy=0;" parent="1" source="VyGet-gFBxRApP3kLGEh-9" target="VyGet-gFBxRApP3kLGEh-1" edge="1">
          <mxGeometry width="50" height="50" relative="1" as="geometry">
            <mxPoint x="230" y="-154" as="sourcePoint" />
            <mxPoint x="280" y="-80" as="targetPoint" />
          </mxGeometry>
        </mxCell>
        <mxCell id="VyGet-gFBxRApP3kLGEh-19" value="" style="endArrow=none;html=1;rounded=0;exitX=1;exitY=0.5;exitDx=0;exitDy=0;entryX=0;entryY=0.75;entryDx=0;entryDy=0;" parent="1" source="VyGet-gFBxRApP3kLGEh-10" target="VyGet-gFBxRApP3kLGEh-1" edge="1">
          <mxGeometry width="50" height="50" relative="1" as="geometry">
            <mxPoint x="180" y="-135" as="sourcePoint" />
            <mxPoint x="300" y="-100" as="targetPoint" />
          </mxGeometry>
        </mxCell>
        <mxCell id="VyGet-gFBxRApP3kLGEh-20" value="" style="endArrow=none;html=1;rounded=0;entryX=0.5;entryY=0;entryDx=0;entryDy=0;exitX=0;exitY=1;exitDx=0;exitDy=0;" parent="1" source="VyGet-gFBxRApP3kLGEh-1" target="VyGet-gFBxRApP3kLGEh-5" edge="1">
          <mxGeometry width="50" height="50" relative="1" as="geometry">
            <mxPoint x="300" y="-70" as="sourcePoint" />
            <mxPoint x="505" y="60" as="targetPoint" />
          </mxGeometry>
        </mxCell>
        <mxCell id="VyGet-gFBxRApP3kLGEh-21" value="" style="endArrow=none;html=1;rounded=0;exitX=0.319;exitY=1.025;exitDx=0;exitDy=0;entryX=0.5;entryY=0;entryDx=0;entryDy=0;exitPerimeter=0;" parent="1" source="VyGet-gFBxRApP3kLGEh-1" target="VyGet-gFBxRApP3kLGEh-4" edge="1">
          <mxGeometry width="50" height="50" relative="1" as="geometry">
            <mxPoint x="330" y="-20" as="sourcePoint" />
            <mxPoint x="445" y="-20" as="targetPoint" />
          </mxGeometry>
        </mxCell>
        <mxCell id="VyGet-gFBxRApP3kLGEh-23" value="" style="endArrow=none;html=1;rounded=0;exitX=0;exitY=0;exitDx=0;exitDy=0;entryX=1;entryY=0.5;entryDx=0;entryDy=0;" parent="1" source="VyGet-gFBxRApP3kLGEh-7" target="VyGet-gFBxRApP3kLGEh-1" edge="1">
          <mxGeometry width="50" height="50" relative="1" as="geometry">
            <mxPoint x="430" y="90" as="sourcePoint" />
            <mxPoint x="545" y="90" as="targetPoint" />
          </mxGeometry>
        </mxCell>
        <mxCell id="VyGet-gFBxRApP3kLGEh-24" value="" style="endArrow=none;html=1;rounded=0;exitX=0;exitY=0.5;exitDx=0;exitDy=0;entryX=1;entryY=0.75;entryDx=0;entryDy=0;" parent="1" source="VyGet-gFBxRApP3kLGEh-3" target="VyGet-gFBxRApP3kLGEh-1" edge="1">
          <mxGeometry width="50" height="50" relative="1" as="geometry">
            <mxPoint x="518" y="-153" as="sourcePoint" />
            <mxPoint x="457" y="-110" as="targetPoint" />
          </mxGeometry>
        </mxCell>
        <mxCell id="VyGet-gFBxRApP3kLGEh-25" value="" style="endArrow=none;html=1;rounded=0;exitX=0.889;exitY=0.975;exitDx=0;exitDy=0;entryX=0;entryY=0.5;entryDx=0;entryDy=0;exitPerimeter=0;" parent="1" source="VyGet-gFBxRApP3kLGEh-1" target="VyGet-gFBxRApP3kLGEh-6" edge="1">
          <mxGeometry width="50" height="50" relative="1" as="geometry">
            <mxPoint x="340" y="70" as="sourcePoint" />
            <mxPoint x="455" y="70" as="targetPoint" />
          </mxGeometry>
        </mxCell>
        <mxCell id="VyGet-gFBxRApP3kLGEh-26" value="" style="endArrow=none;html=1;rounded=0;exitX=0.75;exitY=1;exitDx=0;exitDy=0;entryX=0;entryY=0;entryDx=0;entryDy=0;" parent="1" source="VyGet-gFBxRApP3kLGEh-1" target="VyGet-gFBxRApP3kLGEh-8" edge="1">
          <mxGeometry width="50" height="50" relative="1" as="geometry">
            <mxPoint x="410" y="40" as="sourcePoint" />
            <mxPoint x="525" y="40" as="targetPoint" />
          </mxGeometry>
        </mxCell>
        <mxCell id="VyGet-gFBxRApP3kLGEh-30" value="" style="endArrow=none;html=1;rounded=0;exitX=0.059;exitY=0;exitDx=0;exitDy=0;exitPerimeter=0;entryX=0.5;entryY=1;entryDx=0;entryDy=0;" parent="1" source="VyGet-gFBxRApP3kLGEh-1" target="VyGet-gFBxRApP3kLGEh-33" edge="1">
          <mxGeometry width="50" height="50" relative="1" as="geometry">
            <mxPoint x="400" y="-50" as="sourcePoint" />
            <mxPoint x="320" y="-280" as="targetPoint" />
          </mxGeometry>
        </mxCell>
        <mxCell id="VyGet-gFBxRApP3kLGEh-66" value="1" style="edgeLabel;html=1;align=center;verticalAlign=middle;resizable=0;points=[];" parent="VyGet-gFBxRApP3kLGEh-30" vertex="1" connectable="0">
          <mxGeometry x="-0.6" relative="1" as="geometry">
            <mxPoint x="5" y="14" as="offset" />
          </mxGeometry>
        </mxCell>
        <mxCell id="VyGet-gFBxRApP3kLGEh-31" value="" style="endArrow=none;html=1;rounded=0;exitX=0.37;exitY=0;exitDx=0;exitDy=0;entryX=0.5;entryY=1;entryDx=0;entryDy=0;exitPerimeter=0;" parent="1" source="VyGet-gFBxRApP3kLGEh-1" target="VyGet-gFBxRApP3kLGEh-34" edge="1">
          <mxGeometry width="50" height="50" relative="1" as="geometry">
            <mxPoint x="330" y="-110" as="sourcePoint" />
            <mxPoint x="380" y="-280" as="targetPoint" />
          </mxGeometry>
        </mxCell>
        <mxCell id="VyGet-gFBxRApP3kLGEh-68" value="1" style="edgeLabel;html=1;align=center;verticalAlign=middle;resizable=0;points=[];" parent="VyGet-gFBxRApP3kLGEh-31" vertex="1" connectable="0">
          <mxGeometry x="-0.5333" y="-3" relative="1" as="geometry">
            <mxPoint x="5" y="18" as="offset" />
          </mxGeometry>
        </mxCell>
        <mxCell id="VyGet-gFBxRApP3kLGEh-32" value="" style="endArrow=none;html=1;rounded=0;exitX=0.681;exitY=-0.025;exitDx=0;exitDy=0;exitPerimeter=0;entryX=0.5;entryY=1;entryDx=0;entryDy=0;" parent="1" source="VyGet-gFBxRApP3kLGEh-1" target="VyGet-gFBxRApP3kLGEh-35" edge="1">
          <mxGeometry width="50" height="50" relative="1" as="geometry">
            <mxPoint x="440" y="-200" as="sourcePoint" />
            <mxPoint x="440" y="-280" as="targetPoint" />
          </mxGeometry>
        </mxCell>
        <mxCell id="VyGet-gFBxRApP3kLGEh-70" value="1" style="edgeLabel;html=1;align=center;verticalAlign=middle;resizable=0;points=[];" parent="VyGet-gFBxRApP3kLGEh-32" vertex="1" connectable="0">
          <mxGeometry x="-0.7853" y="1" relative="1" as="geometry">
            <mxPoint x="9" y="2" as="offset" />
          </mxGeometry>
        </mxCell>
        <mxCell id="VyGet-gFBxRApP3kLGEh-33" value="is" style="rhombus;whiteSpace=wrap;html=1;" parent="1" vertex="1">
          <mxGeometry x="290" y="-280" width="40" height="40" as="geometry" />
        </mxCell>
        <mxCell id="VyGet-gFBxRApP3kLGEh-34" value="is" style="rhombus;whiteSpace=wrap;html=1;" parent="1" vertex="1">
          <mxGeometry x="340" y="-280" width="40" height="40" as="geometry" />
        </mxCell>
        <mxCell id="VyGet-gFBxRApP3kLGEh-35" value="is" style="rhombus;whiteSpace=wrap;html=1;" parent="1" vertex="1">
          <mxGeometry x="387.25" y="-280" width="40" height="40" as="geometry" />
        </mxCell>
        <mxCell id="VyGet-gFBxRApP3kLGEh-36" value="" style="endArrow=none;html=1;rounded=0;exitX=0.5;exitY=0;exitDx=0;exitDy=0;" parent="1" source="VyGet-gFBxRApP3kLGEh-33" edge="1">
          <mxGeometry width="50" height="50" relative="1" as="geometry">
            <mxPoint x="312" y="-320" as="sourcePoint" />
            <mxPoint x="280" y="-360" as="targetPoint" />
          </mxGeometry>
        </mxCell>
        <mxCell id="VyGet-gFBxRApP3kLGEh-67" value="1" style="edgeLabel;html=1;align=center;verticalAlign=middle;resizable=0;points=[];" parent="VyGet-gFBxRApP3kLGEh-36" vertex="1" connectable="0">
          <mxGeometry x="0.75" relative="1" as="geometry">
            <mxPoint x="5" y="-2" as="offset" />
          </mxGeometry>
        </mxCell>
        <mxCell id="VyGet-gFBxRApP3kLGEh-37" value="" style="endArrow=none;html=1;rounded=0;exitX=0.5;exitY=0;exitDx=0;exitDy=0;" parent="1" source="VyGet-gFBxRApP3kLGEh-34" edge="1">
          <mxGeometry width="50" height="50" relative="1" as="geometry">
            <mxPoint x="364" y="-280" as="sourcePoint" />
            <mxPoint x="359" y="-360" as="targetPoint" />
          </mxGeometry>
        </mxCell>
        <mxCell id="VyGet-gFBxRApP3kLGEh-69" value="1" style="edgeLabel;html=1;align=center;verticalAlign=middle;resizable=0;points=[];" parent="VyGet-gFBxRApP3kLGEh-37" vertex="1" connectable="0">
          <mxGeometry x="0.7499" y="1" relative="1" as="geometry">
            <mxPoint x="8" as="offset" />
          </mxGeometry>
        </mxCell>
        <mxCell id="VyGet-gFBxRApP3kLGEh-38" value="" style="endArrow=none;html=1;rounded=0;exitX=0.5;exitY=0;exitDx=0;exitDy=0;entryX=0;entryY=1;entryDx=0;entryDy=0;" parent="1" source="VyGet-gFBxRApP3kLGEh-35" target="VyGet-gFBxRApP3kLGEh-44" edge="1">
          <mxGeometry width="50" height="50" relative="1" as="geometry">
            <mxPoint x="430" y="-300" as="sourcePoint" />
            <mxPoint x="480" y="-360" as="targetPoint" />
          </mxGeometry>
        </mxCell>
        <mxCell id="VyGet-gFBxRApP3kLGEh-71" value="1" style="edgeLabel;html=1;align=center;verticalAlign=middle;resizable=0;points=[];" parent="VyGet-gFBxRApP3kLGEh-38" vertex="1" connectable="0">
          <mxGeometry x="0.418" y="1" relative="1" as="geometry">
            <mxPoint x="15" y="-13" as="offset" />
          </mxGeometry>
        </mxCell>
        <mxCell id="VyGet-gFBxRApP3kLGEh-39" value="Tobacco" style="rounded=1;whiteSpace=wrap;html=1;" parent="1" vertex="1">
          <mxGeometry x="200" y="-400" width="90" height="40" as="geometry" />
        </mxCell>
        <mxCell id="VyGet-gFBxRApP3kLGEh-44" value="Household_Item" style="rounded=1;whiteSpace=wrap;html=1;" parent="1" vertex="1">
          <mxGeometry x="427.25" y="-400" width="100" height="40" as="geometry" />
        </mxCell>
        <mxCell id="VyGet-gFBxRApP3kLGEh-45" value="Drink" style="rounded=1;whiteSpace=wrap;html=1;" parent="1" vertex="1">
          <mxGeometry x="307.25" y="-400" width="105.5" height="40" as="geometry" />
        </mxCell>
        <mxCell id="VyGet-gFBxRApP3kLGEh-46" value="" style="endArrow=none;html=1;rounded=0;entryX=1;entryY=0.5;entryDx=0;entryDy=0;exitX=0;exitY=0.5;exitDx=0;exitDy=0;" parent="1" source="VyGet-gFBxRApP3kLGEh-39" target="VyGet-gFBxRApP3kLGEh-49" edge="1">
          <mxGeometry width="50" height="50" relative="1" as="geometry">
            <mxPoint x="216" y="-400" as="sourcePoint" />
            <mxPoint x="190" y="-440" as="targetPoint" />
          </mxGeometry>
        </mxCell>
        <mxCell id="VyGet-gFBxRApP3kLGEh-47" value="" style="endArrow=none;html=1;rounded=0;exitX=0;exitY=0;exitDx=0;exitDy=0;entryX=1;entryY=0.5;entryDx=0;entryDy=0;" parent="1" source="VyGet-gFBxRApP3kLGEh-39" target="VyGet-gFBxRApP3kLGEh-50" edge="1">
          <mxGeometry width="50" height="50" relative="1" as="geometry">
            <mxPoint x="250" y="-450" as="sourcePoint" />
            <mxPoint x="240" y="-440" as="targetPoint" />
          </mxGeometry>
        </mxCell>
        <mxCell id="VyGet-gFBxRApP3kLGEh-48" value="" style="endArrow=none;html=1;rounded=0;entryX=0.5;entryY=1;entryDx=0;entryDy=0;exitX=0.5;exitY=0;exitDx=0;exitDy=0;" parent="1" source="VyGet-gFBxRApP3kLGEh-39" target="VyGet-gFBxRApP3kLGEh-53" edge="1">
          <mxGeometry width="50" height="50" relative="1" as="geometry">
            <mxPoint x="223" y="-400" as="sourcePoint" />
            <mxPoint x="268" y="-440" as="targetPoint" />
          </mxGeometry>
        </mxCell>
        <mxCell id="VyGet-gFBxRApP3kLGEh-49" value="product_id" style="ellipse;whiteSpace=wrap;html=1;" parent="1" vertex="1">
          <mxGeometry x="67.25" y="-390" width="80" height="40" as="geometry" />
        </mxCell>
        <mxCell id="VyGet-gFBxRApP3kLGEh-50" value="nicotine_amount" style="ellipse;whiteSpace=wrap;html=1;" parent="1" vertex="1">
          <mxGeometry x="54.5" y="-445" width="105.5" height="40" as="geometry" />
        </mxCell>
        <mxCell id="VyGet-gFBxRApP3kLGEh-53" value="tar_amount" style="ellipse;whiteSpace=wrap;html=1;" parent="1" vertex="1">
          <mxGeometry x="102.25" y="-510" width="105.5" height="40" as="geometry" />
        </mxCell>
        <mxCell id="VyGet-gFBxRApP3kLGEh-54" value="carbon_monoxide&lt;div&gt;_amount&lt;/div&gt;" style="ellipse;whiteSpace=wrap;html=1;" parent="1" vertex="1">
          <mxGeometry x="130" y="-590" width="110" height="50" as="geometry" />
        </mxCell>
        <mxCell id="VyGet-gFBxRApP3kLGEh-56" value="" style="endArrow=none;html=1;rounded=0;exitX=0.5;exitY=1;exitDx=0;exitDy=0;entryX=0.75;entryY=0;entryDx=0;entryDy=0;" parent="1" source="VyGet-gFBxRApP3kLGEh-54" target="VyGet-gFBxRApP3kLGEh-39" edge="1">
          <mxGeometry width="50" height="50" relative="1" as="geometry">
            <mxPoint x="233" y="-390" as="sourcePoint" />
            <mxPoint x="210" y="-406" as="targetPoint" />
          </mxGeometry>
        </mxCell>
        <mxCell id="VyGet-gFBxRApP3kLGEh-57" value="strength_percentage" style="ellipse;whiteSpace=wrap;html=1;" parent="1" vertex="1">
          <mxGeometry x="408.5" y="-580" width="125.5" height="40" as="geometry" />
        </mxCell>
        <mxCell id="VyGet-gFBxRApP3kLGEh-58" value="" style="endArrow=none;html=1;rounded=0;exitX=0.5;exitY=1;exitDx=0;exitDy=0;entryX=0.896;entryY=-0.025;entryDx=0;entryDy=0;entryPerimeter=0;" parent="1" source="VyGet-gFBxRApP3kLGEh-57" target="VyGet-gFBxRApP3kLGEh-45" edge="1">
          <mxGeometry width="50" height="50" relative="1" as="geometry">
            <mxPoint x="278" y="-410" as="sourcePoint" />
            <mxPoint x="278" y="-390" as="targetPoint" />
          </mxGeometry>
        </mxCell>
        <mxCell id="VyGet-gFBxRApP3kLGEh-59" value="product_id" style="ellipse;whiteSpace=wrap;html=1;" parent="1" vertex="1">
          <mxGeometry x="368" y="-530" width="80" height="30" as="geometry" />
        </mxCell>
        <mxCell id="VyGet-gFBxRApP3kLGEh-60" value="" style="endArrow=none;html=1;rounded=0;entryX=0.5;entryY=0;entryDx=0;entryDy=0;exitX=0.5;exitY=1;exitDx=0;exitDy=0;" parent="1" source="VyGet-gFBxRApP3kLGEh-59" target="VyGet-gFBxRApP3kLGEh-45" edge="1">
          <mxGeometry width="50" height="50" relative="1" as="geometry">
            <mxPoint x="210" y="-350" as="sourcePoint" />
            <mxPoint x="178" y="-334" as="targetPoint" />
          </mxGeometry>
        </mxCell>
        <mxCell id="VyGet-gFBxRApP3kLGEh-61" value="product_id" style="ellipse;whiteSpace=wrap;html=1;" parent="1" vertex="1">
          <mxGeometry x="454" y="-450" width="80" height="30" as="geometry" />
        </mxCell>
        <mxCell id="VyGet-gFBxRApP3kLGEh-62" value="" style="endArrow=none;html=1;rounded=0;entryX=0.325;entryY=1.033;entryDx=0;entryDy=0;exitX=0.5;exitY=0;exitDx=0;exitDy=0;entryPerimeter=0;" parent="1" source="VyGet-gFBxRApP3kLGEh-44" target="VyGet-gFBxRApP3kLGEh-61" edge="1">
          <mxGeometry width="50" height="50" relative="1" as="geometry">
            <mxPoint x="375" y="-420" as="sourcePoint" />
            <mxPoint x="397" y="-390" as="targetPoint" />
          </mxGeometry>
        </mxCell>
        <mxCell id="VyGet-gFBxRApP3kLGEh-63" value="" style="endArrow=none;html=1;rounded=0;exitX=0.75;exitY=0;exitDx=0;exitDy=0;entryX=0.5;entryY=1;entryDx=0;entryDy=0;" parent="1" source="VyGet-gFBxRApP3kLGEh-44" target="VyGet-gFBxRApP3kLGEh-64" edge="1">
          <mxGeometry width="50" height="50" relative="1" as="geometry">
            <mxPoint x="550" y="-390" as="sourcePoint" />
            <mxPoint x="536" y="-444" as="targetPoint" />
          </mxGeometry>
        </mxCell>
        <mxCell id="VyGet-gFBxRApP3kLGEh-64" value="item_type" style="ellipse;whiteSpace=wrap;html=1;" parent="1" vertex="1">
          <mxGeometry x="517.25" y="-480" width="80" height="30" as="geometry" />
        </mxCell>
        <mxCell id="5VRgg_MjnfKO351LVxNz-1" value="" style="endArrow=none;html=1;rounded=0;entryX=0.5;entryY=1;entryDx=0;entryDy=0;exitX=0.5;exitY=0;exitDx=0;exitDy=0;" parent="1" source="5VRgg_MjnfKO351LVxNz-3" edge="1">
          <mxGeometry width="50" height="50" relative="1" as="geometry">
            <mxPoint x="380" y="30" as="sourcePoint" />
            <mxPoint x="379.5" y="-80" as="targetPoint" />
          </mxGeometry>
        </mxCell>
        <mxCell id="5VRgg_MjnfKO351LVxNz-105" value="1" style="edgeLabel;html=1;align=center;verticalAlign=middle;resizable=0;points=[];" parent="5VRgg_MjnfKO351LVxNz-1" vertex="1" connectable="0">
          <mxGeometry x="0.75" relative="1" as="geometry">
            <mxPoint x="8" as="offset" />
          </mxGeometry>
        </mxCell>
        <mxCell id="5VRgg_MjnfKO351LVxNz-3" value="has" style="rhombus;whiteSpace=wrap;html=1;" parent="1" vertex="1">
          <mxGeometry x="359.5" width="40" height="40" as="geometry" />
        </mxCell>
        <mxCell id="5VRgg_MjnfKO351LVxNz-4" value="" style="endArrow=none;html=1;rounded=0;entryX=0.5;entryY=1;entryDx=0;entryDy=0;" parent="1" target="5VRgg_MjnfKO351LVxNz-3" edge="1">
          <mxGeometry width="50" height="50" relative="1" as="geometry">
            <mxPoint x="380" y="120" as="sourcePoint" />
            <mxPoint x="379" y="50" as="targetPoint" />
          </mxGeometry>
        </mxCell>
        <mxCell id="5VRgg_MjnfKO351LVxNz-106" value="M" style="edgeLabel;html=1;align=center;verticalAlign=middle;resizable=0;points=[];" parent="5VRgg_MjnfKO351LVxNz-4" vertex="1" connectable="0">
          <mxGeometry x="-0.675" relative="1" as="geometry">
            <mxPoint x="7" y="3" as="offset" />
          </mxGeometry>
        </mxCell>
        <mxCell id="5VRgg_MjnfKO351LVxNz-7" value="Order_Detail" style="rounded=1;whiteSpace=wrap;html=1;" parent="1" vertex="1">
          <mxGeometry x="312" y="120" width="135" height="40" as="geometry" />
        </mxCell>
        <mxCell id="5VRgg_MjnfKO351LVxNz-8" value="" style="endArrow=none;html=1;rounded=0;exitX=0;exitY=0;exitDx=0;exitDy=0;entryX=1;entryY=1;entryDx=0;entryDy=0;" parent="1" source="5VRgg_MjnfKO351LVxNz-7" target="5VRgg_MjnfKO351LVxNz-13" edge="1">
          <mxGeometry width="50" height="50" relative="1" as="geometry">
            <mxPoint x="278" y="140" as="sourcePoint" />
            <mxPoint x="270" y="110" as="targetPoint" />
          </mxGeometry>
        </mxCell>
        <mxCell id="5VRgg_MjnfKO351LVxNz-9" value="" style="endArrow=none;html=1;rounded=0;exitX=0;exitY=0.5;exitDx=0;exitDy=0;entryX=1;entryY=0.5;entryDx=0;entryDy=0;" parent="1" source="5VRgg_MjnfKO351LVxNz-7" target="5VRgg_MjnfKO351LVxNz-14" edge="1">
          <mxGeometry width="50" height="50" relative="1" as="geometry">
            <mxPoint x="332" y="-60" as="sourcePoint" />
            <mxPoint x="270" y="140" as="targetPoint" />
          </mxGeometry>
        </mxCell>
        <mxCell id="5VRgg_MjnfKO351LVxNz-10" value="" style="endArrow=none;html=1;rounded=0;exitX=0;exitY=1;exitDx=0;exitDy=0;entryX=1;entryY=0;entryDx=0;entryDy=0;" parent="1" source="5VRgg_MjnfKO351LVxNz-7" target="5VRgg_MjnfKO351LVxNz-15" edge="1">
          <mxGeometry width="50" height="50" relative="1" as="geometry">
            <mxPoint x="342" y="-50" as="sourcePoint" />
            <mxPoint x="280" y="170" as="targetPoint" />
          </mxGeometry>
        </mxCell>
        <mxCell id="5VRgg_MjnfKO351LVxNz-11" value="" style="endArrow=none;html=1;rounded=0;entryX=1;entryY=0;entryDx=0;entryDy=0;exitX=0;exitY=1;exitDx=0;exitDy=0;" parent="1" source="5VRgg_MjnfKO351LVxNz-17" target="5VRgg_MjnfKO351LVxNz-7" edge="1">
          <mxGeometry width="50" height="50" relative="1" as="geometry">
            <mxPoint x="480" y="100" as="sourcePoint" />
            <mxPoint x="264" y="6" as="targetPoint" />
          </mxGeometry>
        </mxCell>
        <mxCell id="5VRgg_MjnfKO351LVxNz-12" value="" style="endArrow=none;html=1;rounded=0;entryX=1;entryY=0.5;entryDx=0;entryDy=0;exitX=0;exitY=0.5;exitDx=0;exitDy=0;" parent="1" source="5VRgg_MjnfKO351LVxNz-16" target="5VRgg_MjnfKO351LVxNz-7" edge="1">
          <mxGeometry width="50" height="50" relative="1" as="geometry">
            <mxPoint x="480" y="140" as="sourcePoint" />
            <mxPoint x="274" y="16" as="targetPoint" />
          </mxGeometry>
        </mxCell>
        <mxCell id="5VRgg_MjnfKO351LVxNz-13" value="id" style="ellipse;whiteSpace=wrap;html=1;" parent="1" vertex="1">
          <mxGeometry x="190" y="70" width="110" height="40" as="geometry" />
        </mxCell>
        <mxCell id="5VRgg_MjnfKO351LVxNz-14" value="order_id" style="ellipse;whiteSpace=wrap;html=1;" parent="1" vertex="1">
          <mxGeometry x="160" y="120" width="110" height="40" as="geometry" />
        </mxCell>
        <mxCell id="5VRgg_MjnfKO351LVxNz-15" value="product_id" style="ellipse;whiteSpace=wrap;html=1;" parent="1" vertex="1">
          <mxGeometry x="170" y="180" width="110" height="40" as="geometry" />
        </mxCell>
        <mxCell id="5VRgg_MjnfKO351LVxNz-16" value="quantity" style="ellipse;whiteSpace=wrap;html=1;" parent="1" vertex="1">
          <mxGeometry x="480" y="120" width="110" height="40" as="geometry" />
        </mxCell>
        <mxCell id="5VRgg_MjnfKO351LVxNz-17" value="price" style="ellipse;whiteSpace=wrap;html=1;" parent="1" vertex="1">
          <mxGeometry x="470" y="70" width="110" height="40" as="geometry" />
        </mxCell>
        <mxCell id="5VRgg_MjnfKO351LVxNz-18" value="has" style="rhombus;whiteSpace=wrap;html=1;" parent="1" vertex="1">
          <mxGeometry x="359.5" y="240" width="40" height="40" as="geometry" />
        </mxCell>
        <mxCell id="5VRgg_MjnfKO351LVxNz-19" value="" style="endArrow=none;html=1;rounded=0;exitX=0.5;exitY=0;exitDx=0;exitDy=0;entryX=0.5;entryY=1;entryDx=0;entryDy=0;" parent="1" source="5VRgg_MjnfKO351LVxNz-18" target="5VRgg_MjnfKO351LVxNz-7" edge="1">
          <mxGeometry width="50" height="50" relative="1" as="geometry">
            <mxPoint x="380" y="270" as="sourcePoint" />
            <mxPoint x="380" y="170" as="targetPoint" />
          </mxGeometry>
        </mxCell>
        <mxCell id="5VRgg_MjnfKO351LVxNz-114" value="M" style="edgeLabel;html=1;align=center;verticalAlign=middle;resizable=0;points=[];" parent="5VRgg_MjnfKO351LVxNz-19" vertex="1" connectable="0">
          <mxGeometry x="0.675" y="-1" relative="1" as="geometry">
            <mxPoint x="7" as="offset" />
          </mxGeometry>
        </mxCell>
        <mxCell id="5VRgg_MjnfKO351LVxNz-20" value="" style="endArrow=none;html=1;rounded=0;entryX=0.5;entryY=1;entryDx=0;entryDy=0;exitX=0.5;exitY=0;exitDx=0;exitDy=0;" parent="1" source="5VRgg_MjnfKO351LVxNz-29" target="5VRgg_MjnfKO351LVxNz-18" edge="1">
          <mxGeometry width="50" height="50" relative="1" as="geometry">
            <mxPoint x="380" y="360" as="sourcePoint" />
            <mxPoint x="379" y="290" as="targetPoint" />
          </mxGeometry>
        </mxCell>
        <mxCell id="5VRgg_MjnfKO351LVxNz-115" value="1" style="edgeLabel;html=1;align=center;verticalAlign=middle;resizable=0;points=[];" parent="5VRgg_MjnfKO351LVxNz-20" vertex="1" connectable="0">
          <mxGeometry x="-0.7111" y="-2" relative="1" as="geometry">
            <mxPoint x="5" as="offset" />
          </mxGeometry>
        </mxCell>
        <mxCell id="5VRgg_MjnfKO351LVxNz-23" value="" style="endArrow=none;html=1;rounded=0;exitX=0.25;exitY=0;exitDx=0;exitDy=0;entryX=0.5;entryY=1;entryDx=0;entryDy=0;" parent="1" source="5VRgg_MjnfKO351LVxNz-29" target="5VRgg_MjnfKO351LVxNz-26" edge="1">
          <mxGeometry width="50" height="50" relative="1" as="geometry">
            <mxPoint x="278" y="380" as="sourcePoint" />
            <mxPoint x="270" y="350" as="targetPoint" />
          </mxGeometry>
        </mxCell>
        <mxCell id="5VRgg_MjnfKO351LVxNz-24" value="" style="endArrow=none;html=1;rounded=0;exitX=0;exitY=0;exitDx=0;exitDy=0;entryX=1;entryY=1;entryDx=0;entryDy=0;" parent="1" source="5VRgg_MjnfKO351LVxNz-29" target="5VRgg_MjnfKO351LVxNz-27" edge="1">
          <mxGeometry width="50" height="50" relative="1" as="geometry">
            <mxPoint x="332" y="180" as="sourcePoint" />
            <mxPoint x="270" y="380" as="targetPoint" />
          </mxGeometry>
        </mxCell>
        <mxCell id="5VRgg_MjnfKO351LVxNz-25" value="" style="endArrow=none;html=1;rounded=0;exitX=0;exitY=0.5;exitDx=0;exitDy=0;entryX=1;entryY=1;entryDx=0;entryDy=0;" parent="1" source="5VRgg_MjnfKO351LVxNz-29" target="5VRgg_MjnfKO351LVxNz-28" edge="1">
          <mxGeometry width="50" height="50" relative="1" as="geometry">
            <mxPoint x="342" y="190" as="sourcePoint" />
            <mxPoint x="280" y="410" as="targetPoint" />
          </mxGeometry>
        </mxCell>
        <mxCell id="5VRgg_MjnfKO351LVxNz-26" value="id" style="ellipse;whiteSpace=wrap;html=1;" parent="1" vertex="1">
          <mxGeometry x="312" y="305" width="51" height="30" as="geometry" />
        </mxCell>
        <mxCell id="5VRgg_MjnfKO351LVxNz-27" value="admin_id" style="ellipse;whiteSpace=wrap;html=1;" parent="1" vertex="1">
          <mxGeometry x="232" y="260" width="80" height="40" as="geometry" />
        </mxCell>
        <mxCell id="5VRgg_MjnfKO351LVxNz-28" value="order_time" style="ellipse;whiteSpace=wrap;html=1;" parent="1" vertex="1">
          <mxGeometry x="97.75" y="300" width="110" height="40" as="geometry" />
        </mxCell>
        <mxCell id="5VRgg_MjnfKO351LVxNz-29" value="Order" style="rounded=1;whiteSpace=wrap;html=1;" parent="1" vertex="1">
          <mxGeometry x="312" y="370" width="135" height="40" as="geometry" />
        </mxCell>
        <mxCell id="5VRgg_MjnfKO351LVxNz-31" value="approval_time" style="ellipse;whiteSpace=wrap;html=1;" parent="1" vertex="1">
          <mxGeometry x="60" y="408" width="110" height="40" as="geometry" />
        </mxCell>
        <mxCell id="5VRgg_MjnfKO351LVxNz-32" value="" style="endArrow=none;html=1;rounded=0;entryX=1;entryY=0.5;entryDx=0;entryDy=0;exitX=0;exitY=1;exitDx=0;exitDy=0;" parent="1" source="5VRgg_MjnfKO351LVxNz-29" target="5VRgg_MjnfKO351LVxNz-31" edge="1">
          <mxGeometry width="50" height="50" relative="1" as="geometry">
            <mxPoint x="310" y="420" as="sourcePoint" />
            <mxPoint x="250" y="380" as="targetPoint" />
          </mxGeometry>
        </mxCell>
        <mxCell id="5VRgg_MjnfKO351LVxNz-33" value="delivery_time" style="ellipse;whiteSpace=wrap;html=1;" parent="1" vertex="1">
          <mxGeometry x="120" y="363" width="110" height="40" as="geometry" />
        </mxCell>
        <mxCell id="5VRgg_MjnfKO351LVxNz-34" value="" style="endArrow=none;html=1;rounded=0;entryX=1;entryY=0.5;entryDx=0;entryDy=0;exitX=0;exitY=0.75;exitDx=0;exitDy=0;" parent="1" source="5VRgg_MjnfKO351LVxNz-29" target="5VRgg_MjnfKO351LVxNz-33" edge="1">
          <mxGeometry width="50" height="50" relative="1" as="geometry">
            <mxPoint x="320" y="440" as="sourcePoint" />
            <mxPoint x="250" y="410" as="targetPoint" />
          </mxGeometry>
        </mxCell>
        <mxCell id="5VRgg_MjnfKO351LVxNz-35" value="has" style="rhombus;whiteSpace=wrap;html=1;rotation=90;" parent="1" vertex="1">
          <mxGeometry x="580" y="370" width="40" height="40" as="geometry" />
        </mxCell>
        <mxCell id="5VRgg_MjnfKO351LVxNz-36" value="" style="endArrow=none;html=1;rounded=0;exitX=0.5;exitY=0;exitDx=0;exitDy=0;" parent="1" source="5VRgg_MjnfKO351LVxNz-35" edge="1">
          <mxGeometry width="50" height="50" relative="1" as="geometry">
            <mxPoint x="630.5" y="330" as="sourcePoint" />
            <mxPoint x="750" y="390" as="targetPoint" />
          </mxGeometry>
        </mxCell>
        <mxCell id="5VRgg_MjnfKO351LVxNz-109" value="1" style="edgeLabel;html=1;align=center;verticalAlign=middle;resizable=0;points=[];" parent="5VRgg_MjnfKO351LVxNz-36" vertex="1" connectable="0">
          <mxGeometry x="0.8154" relative="1" as="geometry">
            <mxPoint y="-9" as="offset" />
          </mxGeometry>
        </mxCell>
        <mxCell id="5VRgg_MjnfKO351LVxNz-37" value="" style="endArrow=none;html=1;rounded=0;entryX=0.5;entryY=1;entryDx=0;entryDy=0;exitX=1;exitY=0.5;exitDx=0;exitDy=0;" parent="1" source="5VRgg_MjnfKO351LVxNz-29" target="5VRgg_MjnfKO351LVxNz-35" edge="1">
          <mxGeometry width="50" height="50" relative="1" as="geometry">
            <mxPoint x="630.5" y="430" as="sourcePoint" />
            <mxPoint x="629.5" y="350" as="targetPoint" />
          </mxGeometry>
        </mxCell>
        <mxCell id="5VRgg_MjnfKO351LVxNz-108" value="M" style="edgeLabel;html=1;align=center;verticalAlign=middle;resizable=0;points=[];" parent="5VRgg_MjnfKO351LVxNz-37" vertex="1" connectable="0">
          <mxGeometry x="-0.8195" y="-2" relative="1" as="geometry">
            <mxPoint y="-11" as="offset" />
          </mxGeometry>
        </mxCell>
        <mxCell id="5VRgg_MjnfKO351LVxNz-38" value="User" style="rounded=1;whiteSpace=wrap;html=1;" parent="1" vertex="1">
          <mxGeometry x="750" y="370" width="135" height="40" as="geometry" />
        </mxCell>
        <mxCell id="5VRgg_MjnfKO351LVxNz-41" value="" style="endArrow=none;html=1;rounded=0;entryX=0.25;entryY=0;entryDx=0;entryDy=0;exitX=0.5;exitY=1;exitDx=0;exitDy=0;" parent="1" source="5VRgg_MjnfKO351LVxNz-42" target="5VRgg_MjnfKO351LVxNz-38" edge="1">
          <mxGeometry width="50" height="50" relative="1" as="geometry">
            <mxPoint x="784" y="320" as="sourcePoint" />
            <mxPoint x="880" y="312" as="targetPoint" />
          </mxGeometry>
        </mxCell>
        <mxCell id="5VRgg_MjnfKO351LVxNz-42" value="id" style="ellipse;whiteSpace=wrap;html=1;" parent="1" vertex="1">
          <mxGeometry x="740" y="290" width="70" height="30" as="geometry" />
        </mxCell>
        <mxCell id="5VRgg_MjnfKO351LVxNz-43" value="" style="endArrow=none;html=1;rounded=0;entryX=0.75;entryY=0;entryDx=0;entryDy=0;" parent="1" target="5VRgg_MjnfKO351LVxNz-38" edge="1">
          <mxGeometry width="50" height="50" relative="1" as="geometry">
            <mxPoint x="870" y="320" as="sourcePoint" />
            <mxPoint x="794" y="380" as="targetPoint" />
          </mxGeometry>
        </mxCell>
        <mxCell id="5VRgg_MjnfKO351LVxNz-44" value="name" style="ellipse;whiteSpace=wrap;html=1;" parent="1" vertex="1">
          <mxGeometry x="830" y="290" width="70" height="30" as="geometry" />
        </mxCell>
        <mxCell id="5VRgg_MjnfKO351LVxNz-46" value="is" style="rhombus;whiteSpace=wrap;html=1;rotation=60;" parent="1" vertex="1">
          <mxGeometry x="980" y="305" width="40" height="40" as="geometry" />
        </mxCell>
        <mxCell id="5VRgg_MjnfKO351LVxNz-47" value="" style="endArrow=none;html=1;rounded=0;entryX=0.5;entryY=1;entryDx=0;entryDy=0;exitX=1;exitY=0.25;exitDx=0;exitDy=0;" parent="1" source="5VRgg_MjnfKO351LVxNz-38" target="5VRgg_MjnfKO351LVxNz-46" edge="1">
          <mxGeometry width="50" height="50" relative="1" as="geometry">
            <mxPoint x="910" y="380" as="sourcePoint" />
            <mxPoint x="1037.5" y="340" as="targetPoint" />
          </mxGeometry>
        </mxCell>
        <mxCell id="5VRgg_MjnfKO351LVxNz-116" value="1" style="edgeLabel;html=1;align=center;verticalAlign=middle;resizable=0;points=[];" parent="5VRgg_MjnfKO351LVxNz-47" vertex="1" connectable="0">
          <mxGeometry x="-0.7337" relative="1" as="geometry">
            <mxPoint y="-11" as="offset" />
          </mxGeometry>
        </mxCell>
        <mxCell id="5VRgg_MjnfKO351LVxNz-48" value="1" style="endArrow=none;html=1;rounded=0;exitX=0.5;exitY=0;exitDx=0;exitDy=0;entryX=0;entryY=0.5;entryDx=0;entryDy=0;" parent="1" source="5VRgg_MjnfKO351LVxNz-46" target="5VRgg_MjnfKO351LVxNz-49" edge="1">
          <mxGeometry x="0.6268" y="10" width="50" height="50" relative="1" as="geometry">
            <mxPoint x="1038.5" y="320" as="sourcePoint" />
            <mxPoint x="1090" y="420" as="targetPoint" />
            <mxPoint y="1" as="offset" />
          </mxGeometry>
        </mxCell>
        <mxCell id="5VRgg_MjnfKO351LVxNz-49" value="Administrator" style="rounded=1;whiteSpace=wrap;html=1;" parent="1" vertex="1">
          <mxGeometry x="1100" y="250" width="135" height="40" as="geometry" />
        </mxCell>
        <mxCell id="5VRgg_MjnfKO351LVxNz-52" value="is" style="rhombus;whiteSpace=wrap;html=1;rotation=90;" parent="1" vertex="1">
          <mxGeometry x="980" y="370" width="40" height="40" as="geometry" />
        </mxCell>
        <mxCell id="5VRgg_MjnfKO351LVxNz-53" value="" style="endArrow=none;html=1;rounded=0;entryX=0.5;entryY=1;entryDx=0;entryDy=0;exitX=1;exitY=0.5;exitDx=0;exitDy=0;" parent="1" source="5VRgg_MjnfKO351LVxNz-38" target="5VRgg_MjnfKO351LVxNz-52" edge="1">
          <mxGeometry width="50" height="50" relative="1" as="geometry">
            <mxPoint x="895" y="450" as="sourcePoint" />
            <mxPoint x="1047.5" y="410" as="targetPoint" />
          </mxGeometry>
        </mxCell>
        <mxCell id="5VRgg_MjnfKO351LVxNz-117" value="1" style="edgeLabel;html=1;align=center;verticalAlign=middle;resizable=0;points=[];" parent="5VRgg_MjnfKO351LVxNz-53" vertex="1" connectable="0">
          <mxGeometry x="-0.6632" y="1" relative="1" as="geometry">
            <mxPoint as="offset" />
          </mxGeometry>
        </mxCell>
        <mxCell id="5VRgg_MjnfKO351LVxNz-54" value="" style="endArrow=none;html=1;rounded=0;exitX=0.5;exitY=0;exitDx=0;exitDy=0;entryX=0;entryY=0.5;entryDx=0;entryDy=0;" parent="1" source="5VRgg_MjnfKO351LVxNz-52" target="5VRgg_MjnfKO351LVxNz-55" edge="1">
          <mxGeometry width="50" height="50" relative="1" as="geometry">
            <mxPoint x="1048.5" y="390" as="sourcePoint" />
            <mxPoint x="1100" y="490" as="targetPoint" />
          </mxGeometry>
        </mxCell>
        <mxCell id="5VRgg_MjnfKO351LVxNz-118" value="1" style="edgeLabel;html=1;align=center;verticalAlign=middle;resizable=0;points=[];" parent="5VRgg_MjnfKO351LVxNz-54" vertex="1" connectable="0">
          <mxGeometry x="0.6508" y="1" relative="1" as="geometry">
            <mxPoint as="offset" />
          </mxGeometry>
        </mxCell>
        <mxCell id="5VRgg_MjnfKO351LVxNz-55" value="Buyer" style="rounded=1;whiteSpace=wrap;html=1;" parent="1" vertex="1">
          <mxGeometry x="1100" y="368" width="135" height="40" as="geometry" />
        </mxCell>
        <mxCell id="5VRgg_MjnfKO351LVxNz-56" value="is" style="rhombus;whiteSpace=wrap;html=1;rotation=120;" parent="1" vertex="1">
          <mxGeometry x="980" y="440" width="40" height="40" as="geometry" />
        </mxCell>
        <mxCell id="5VRgg_MjnfKO351LVxNz-57" value="" style="endArrow=none;html=1;rounded=0;entryX=0.5;entryY=1;entryDx=0;entryDy=0;exitX=1;exitY=1;exitDx=0;exitDy=0;" parent="1" source="5VRgg_MjnfKO351LVxNz-38" target="5VRgg_MjnfKO351LVxNz-56" edge="1">
          <mxGeometry width="50" height="50" relative="1" as="geometry">
            <mxPoint x="885" y="540" as="sourcePoint" />
            <mxPoint x="1037.5" y="500" as="targetPoint" />
          </mxGeometry>
        </mxCell>
        <mxCell id="5VRgg_MjnfKO351LVxNz-119" value="1" style="edgeLabel;html=1;align=center;verticalAlign=middle;resizable=0;points=[];" parent="5VRgg_MjnfKO351LVxNz-57" vertex="1" connectable="0">
          <mxGeometry x="-0.6867" y="-1" relative="1" as="geometry">
            <mxPoint y="11" as="offset" />
          </mxGeometry>
        </mxCell>
        <mxCell id="5VRgg_MjnfKO351LVxNz-58" value="" style="endArrow=none;html=1;rounded=0;exitX=0.5;exitY=0;exitDx=0;exitDy=0;entryX=0;entryY=0.5;entryDx=0;entryDy=0;" parent="1" source="5VRgg_MjnfKO351LVxNz-56" target="5VRgg_MjnfKO351LVxNz-59" edge="1">
          <mxGeometry width="50" height="50" relative="1" as="geometry">
            <mxPoint x="1038.5" y="480" as="sourcePoint" />
            <mxPoint x="1090" y="580" as="targetPoint" />
          </mxGeometry>
        </mxCell>
        <mxCell id="5VRgg_MjnfKO351LVxNz-120" value="1" style="edgeLabel;html=1;align=center;verticalAlign=middle;resizable=0;points=[];" parent="5VRgg_MjnfKO351LVxNz-58" vertex="1" connectable="0">
          <mxGeometry x="0.5915" y="2" relative="1" as="geometry">
            <mxPoint y="10" as="offset" />
          </mxGeometry>
        </mxCell>
        <mxCell id="5VRgg_MjnfKO351LVxNz-59" value="Supplier" style="rounded=1;whiteSpace=wrap;html=1;" parent="1" vertex="1">
          <mxGeometry x="1100" y="490" width="135" height="40" as="geometry" />
        </mxCell>
        <mxCell id="5VRgg_MjnfKO351LVxNz-60" value="" style="endArrow=none;html=1;rounded=0;entryX=1;entryY=0.5;entryDx=0;entryDy=0;exitX=0;exitY=0.5;exitDx=0;exitDy=0;" parent="1" source="5VRgg_MjnfKO351LVxNz-61" target="5VRgg_MjnfKO351LVxNz-49" edge="1">
          <mxGeometry width="50" height="50" relative="1" as="geometry">
            <mxPoint x="1300" y="270" as="sourcePoint" />
            <mxPoint x="861" y="380" as="targetPoint" />
          </mxGeometry>
        </mxCell>
        <mxCell id="5VRgg_MjnfKO351LVxNz-61" value="user_id" style="ellipse;whiteSpace=wrap;html=1;" parent="1" vertex="1">
          <mxGeometry x="1280" y="255" width="70" height="30" as="geometry" />
        </mxCell>
        <mxCell id="5VRgg_MjnfKO351LVxNz-62" value="" style="endArrow=none;html=1;rounded=0;entryX=1;entryY=0.5;entryDx=0;entryDy=0;exitX=0;exitY=0.5;exitDx=0;exitDy=0;" parent="1" source="5VRgg_MjnfKO351LVxNz-63" target="5VRgg_MjnfKO351LVxNz-55" edge="1">
          <mxGeometry width="50" height="50" relative="1" as="geometry">
            <mxPoint x="1270" y="388" as="sourcePoint" />
            <mxPoint x="1245" y="280" as="targetPoint" />
          </mxGeometry>
        </mxCell>
        <mxCell id="5VRgg_MjnfKO351LVxNz-63" value="user_id" style="ellipse;whiteSpace=wrap;html=1;" parent="1" vertex="1">
          <mxGeometry x="1279" y="373" width="70" height="30" as="geometry" />
        </mxCell>
        <mxCell id="5VRgg_MjnfKO351LVxNz-64" value="" style="endArrow=none;html=1;rounded=0;entryX=1;entryY=0.5;entryDx=0;entryDy=0;exitX=0;exitY=0.5;exitDx=0;exitDy=0;" parent="1" source="5VRgg_MjnfKO351LVxNz-65" target="5VRgg_MjnfKO351LVxNz-59" edge="1">
          <mxGeometry width="50" height="50" relative="1" as="geometry">
            <mxPoint x="1292" y="510" as="sourcePoint" />
            <mxPoint x="1257" y="510" as="targetPoint" />
          </mxGeometry>
        </mxCell>
        <mxCell id="5VRgg_MjnfKO351LVxNz-65" value="user_id" style="ellipse;whiteSpace=wrap;html=1;" parent="1" vertex="1">
          <mxGeometry x="1280" y="495" width="70" height="30" as="geometry" />
        </mxCell>
        <mxCell id="5VRgg_MjnfKO351LVxNz-70" value="" style="endArrow=none;html=1;rounded=0;exitX=0.5;exitY=0;exitDx=0;exitDy=0;entryX=0.163;entryY=1;entryDx=0;entryDy=0;entryPerimeter=0;" parent="1" source="1xm9PRXpvViFo6wgVTBk-54" target="5VRgg_MjnfKO351LVxNz-29" edge="1">
          <mxGeometry width="50" height="50" relative="1" as="geometry">
            <mxPoint x="332" y="510" as="sourcePoint" />
            <mxPoint x="355" y="420" as="targetPoint" />
          </mxGeometry>
        </mxCell>
        <mxCell id="5VRgg_MjnfKO351LVxNz-110" value="M" style="edgeLabel;html=1;align=center;verticalAlign=middle;resizable=0;points=[];" parent="5VRgg_MjnfKO351LVxNz-70" vertex="1" connectable="0">
          <mxGeometry x="0.6006" y="-2" relative="1" as="geometry">
            <mxPoint x="5" as="offset" />
          </mxGeometry>
        </mxCell>
        <mxCell id="5VRgg_MjnfKO351LVxNz-71" value="" style="endArrow=none;html=1;rounded=0;entryX=0.5;entryY=1;entryDx=0;entryDy=0;exitX=0.75;exitY=0;exitDx=0;exitDy=0;" parent="1" source="5VRgg_MjnfKO351LVxNz-77" target="1xm9PRXpvViFo6wgVTBk-54" edge="1">
          <mxGeometry width="50" height="50" relative="1" as="geometry">
            <mxPoint x="329.75" y="642" as="sourcePoint" />
            <mxPoint x="327.75" y="592" as="targetPoint" />
          </mxGeometry>
        </mxCell>
        <mxCell id="5VRgg_MjnfKO351LVxNz-111" value="M" style="edgeLabel;html=1;align=center;verticalAlign=middle;resizable=0;points=[];rotation=0;" parent="5VRgg_MjnfKO351LVxNz-71" vertex="1" connectable="0">
          <mxGeometry x="-0.6446" y="-1" relative="1" as="geometry">
            <mxPoint x="5" as="offset" />
          </mxGeometry>
        </mxCell>
        <mxCell id="5VRgg_MjnfKO351LVxNz-73" value="" style="endArrow=none;html=1;rounded=0;entryX=0.852;entryY=1;entryDx=0;entryDy=0;entryPerimeter=0;exitX=0.5;exitY=0;exitDx=0;exitDy=0;" parent="1" source="1xm9PRXpvViFo6wgVTBk-61" target="5VRgg_MjnfKO351LVxNz-29" edge="1">
          <mxGeometry width="50" height="50" relative="1" as="geometry">
            <mxPoint x="427" y="470" as="sourcePoint" />
            <mxPoint x="400" y="440" as="targetPoint" />
          </mxGeometry>
        </mxCell>
        <mxCell id="5VRgg_MjnfKO351LVxNz-112" value="M" style="edgeLabel;html=1;align=center;verticalAlign=middle;resizable=0;points=[];" parent="5VRgg_MjnfKO351LVxNz-73" vertex="1" connectable="0">
          <mxGeometry x="0.4333" y="1" relative="1" as="geometry">
            <mxPoint x="7" as="offset" />
          </mxGeometry>
        </mxCell>
        <mxCell id="5VRgg_MjnfKO351LVxNz-75" value="" style="endArrow=none;html=1;rounded=0;entryX=0.5;entryY=1;entryDx=0;entryDy=0;exitX=0.156;exitY=0.025;exitDx=0;exitDy=0;exitPerimeter=0;" parent="1" source="5VRgg_MjnfKO351LVxNz-78" target="1xm9PRXpvViFo6wgVTBk-61" edge="1">
          <mxGeometry width="50" height="50" relative="1" as="geometry">
            <mxPoint x="437" y="640.5" as="sourcePoint" />
            <mxPoint x="437" y="550.5" as="targetPoint" />
          </mxGeometry>
        </mxCell>
        <mxCell id="5VRgg_MjnfKO351LVxNz-113" value="M" style="edgeLabel;html=1;align=center;verticalAlign=middle;resizable=0;points=[];" parent="5VRgg_MjnfKO351LVxNz-75" vertex="1" connectable="0">
          <mxGeometry x="-0.627" y="-1" relative="1" as="geometry">
            <mxPoint x="7" y="1" as="offset" />
          </mxGeometry>
        </mxCell>
        <mxCell id="5VRgg_MjnfKO351LVxNz-77" value="Buyer_Review" style="rounded=1;whiteSpace=wrap;html=1;" parent="1" vertex="1">
          <mxGeometry x="228.75" y="642" width="135" height="40" as="geometry" />
        </mxCell>
        <mxCell id="5VRgg_MjnfKO351LVxNz-78" value="Supplier_Review" style="rounded=1;whiteSpace=wrap;html=1;" parent="1" vertex="1">
          <mxGeometry x="436.5" y="640.5" width="135" height="40" as="geometry" />
        </mxCell>
        <mxCell id="5VRgg_MjnfKO351LVxNz-81" value="rating" style="ellipse;whiteSpace=wrap;html=1;" parent="1" vertex="1">
          <mxGeometry x="74.75" y="742" width="72" height="40" as="geometry" />
        </mxCell>
        <mxCell id="5VRgg_MjnfKO351LVxNz-82" value="" style="endArrow=none;html=1;rounded=0;entryX=1;entryY=0.5;entryDx=0;entryDy=0;exitX=0.25;exitY=1;exitDx=0;exitDy=0;" parent="1" source="5VRgg_MjnfKO351LVxNz-77" target="5VRgg_MjnfKO351LVxNz-81" edge="1">
          <mxGeometry width="50" height="50" relative="1" as="geometry">
            <mxPoint x="215.75" y="672" as="sourcePoint" />
            <mxPoint x="153.75" y="642" as="targetPoint" />
          </mxGeometry>
        </mxCell>
        <mxCell id="5VRgg_MjnfKO351LVxNz-83" value="buyer_id" style="ellipse;whiteSpace=wrap;html=1;" parent="1" vertex="1">
          <mxGeometry x="45.75" y="682" width="80" height="40" as="geometry" />
        </mxCell>
        <mxCell id="5VRgg_MjnfKO351LVxNz-84" value="" style="endArrow=none;html=1;rounded=0;entryX=1;entryY=0.5;entryDx=0;entryDy=0;exitX=0;exitY=1;exitDx=0;exitDy=0;" parent="1" source="5VRgg_MjnfKO351LVxNz-77" target="5VRgg_MjnfKO351LVxNz-83" edge="1">
          <mxGeometry width="50" height="50" relative="1" as="geometry">
            <mxPoint x="215.75" y="662" as="sourcePoint" />
            <mxPoint x="153.75" y="672" as="targetPoint" />
          </mxGeometry>
        </mxCell>
        <mxCell id="5VRgg_MjnfKO351LVxNz-85" value="" style="endArrow=none;html=1;rounded=0;exitX=0.5;exitY=1;exitDx=0;exitDy=0;entryX=1;entryY=0;entryDx=0;entryDy=0;" parent="1" source="5VRgg_MjnfKO351LVxNz-77" target="5VRgg_MjnfKO351LVxNz-86" edge="1">
          <mxGeometry width="50" height="50" relative="1" as="geometry">
            <mxPoint x="316.75" y="522" as="sourcePoint" />
            <mxPoint x="284.75" y="542" as="targetPoint" />
          </mxGeometry>
        </mxCell>
        <mxCell id="5VRgg_MjnfKO351LVxNz-86" value="comment" style="ellipse;whiteSpace=wrap;html=1;" parent="1" vertex="1">
          <mxGeometry x="178.25" y="742" width="75.5" height="40" as="geometry" />
        </mxCell>
        <mxCell id="5VRgg_MjnfKO351LVxNz-89" value="id" style="ellipse;whiteSpace=wrap;html=1;" parent="1" vertex="1">
          <mxGeometry x="85.75" y="623.5" width="70" height="37" as="geometry" />
        </mxCell>
        <mxCell id="5VRgg_MjnfKO351LVxNz-90" value="" style="endArrow=none;html=1;rounded=0;entryX=1;entryY=1;entryDx=0;entryDy=0;exitX=0;exitY=0.25;exitDx=0;exitDy=0;" parent="1" source="5VRgg_MjnfKO351LVxNz-77" target="5VRgg_MjnfKO351LVxNz-89" edge="1">
          <mxGeometry width="50" height="50" relative="1" as="geometry">
            <mxPoint x="316.75" y="532" as="sourcePoint" />
            <mxPoint x="254.75" y="542" as="targetPoint" />
          </mxGeometry>
        </mxCell>
        <mxCell id="5VRgg_MjnfKO351LVxNz-91" value="" style="endArrow=none;html=1;rounded=0;exitX=0.75;exitY=1;exitDx=0;exitDy=0;entryX=0.5;entryY=0;entryDx=0;entryDy=0;" parent="1" source="5VRgg_MjnfKO351LVxNz-77" target="5VRgg_MjnfKO351LVxNz-92" edge="1">
          <mxGeometry width="50" height="50" relative="1" as="geometry">
            <mxPoint x="391.80500000000006" y="682" as="sourcePoint" />
            <mxPoint x="404.75" y="552" as="targetPoint" />
          </mxGeometry>
        </mxCell>
        <mxCell id="5VRgg_MjnfKO351LVxNz-92" value="time_of_arrival" style="ellipse;whiteSpace=wrap;html=1;" parent="1" vertex="1">
          <mxGeometry x="265.75" y="710" width="130" height="40" as="geometry" />
        </mxCell>
        <mxCell id="5VRgg_MjnfKO351LVxNz-93" value="id" style="ellipse;whiteSpace=wrap;html=1;" parent="1" vertex="1">
          <mxGeometry x="628.62" y="630.5" width="67.25" height="40" as="geometry" />
        </mxCell>
        <mxCell id="5VRgg_MjnfKO351LVxNz-94" value="" style="endArrow=none;html=1;rounded=0;entryX=0;entryY=0.5;entryDx=0;entryDy=0;exitX=1;exitY=0.25;exitDx=0;exitDy=0;" parent="1" source="5VRgg_MjnfKO351LVxNz-78" target="5VRgg_MjnfKO351LVxNz-93" edge="1">
          <mxGeometry width="50" height="50" relative="1" as="geometry">
            <mxPoint x="500" y="650.5" as="sourcePoint" />
            <mxPoint x="646.25" y="540.5" as="targetPoint" />
          </mxGeometry>
        </mxCell>
        <mxCell id="5VRgg_MjnfKO351LVxNz-97" value="rating" style="ellipse;whiteSpace=wrap;html=1;" parent="1" vertex="1">
          <mxGeometry x="560.88" y="720.5" width="71.37" height="40" as="geometry" />
        </mxCell>
        <mxCell id="5VRgg_MjnfKO351LVxNz-98" value="" style="endArrow=none;html=1;rounded=0;entryX=0;entryY=0;entryDx=0;entryDy=0;exitX=0.75;exitY=1;exitDx=0;exitDy=0;" parent="1" source="5VRgg_MjnfKO351LVxNz-78" target="5VRgg_MjnfKO351LVxNz-97" edge="1">
          <mxGeometry width="50" height="50" relative="1" as="geometry">
            <mxPoint x="873" y="704.5" as="sourcePoint" />
            <mxPoint x="798" y="674.5" as="targetPoint" />
          </mxGeometry>
        </mxCell>
        <mxCell id="5VRgg_MjnfKO351LVxNz-99" value="supplier_id" style="ellipse;whiteSpace=wrap;html=1;" parent="1" vertex="1">
          <mxGeometry x="607.25" y="680.5" width="110" height="40" as="geometry" />
        </mxCell>
        <mxCell id="5VRgg_MjnfKO351LVxNz-100" value="" style="endArrow=none;html=1;rounded=0;exitX=1;exitY=0.75;exitDx=0;exitDy=0;entryX=0;entryY=0;entryDx=0;entryDy=0;" parent="1" source="5VRgg_MjnfKO351LVxNz-78" target="5VRgg_MjnfKO351LVxNz-99" edge="1">
          <mxGeometry width="50" height="50" relative="1" as="geometry">
            <mxPoint x="873" y="694.5" as="sourcePoint" />
            <mxPoint x="660" y="680.5" as="targetPoint" />
          </mxGeometry>
        </mxCell>
        <mxCell id="5VRgg_MjnfKO351LVxNz-101" value="" style="endArrow=none;html=1;rounded=0;exitX=0.5;exitY=1;exitDx=0;exitDy=0;entryX=0;entryY=0;entryDx=0;entryDy=0;" parent="1" source="5VRgg_MjnfKO351LVxNz-78" target="5VRgg_MjnfKO351LVxNz-102" edge="1">
          <mxGeometry width="50" height="50" relative="1" as="geometry">
            <mxPoint x="882" y="714.5" as="sourcePoint" />
            <mxPoint x="929" y="574.5" as="targetPoint" />
          </mxGeometry>
        </mxCell>
        <mxCell id="5VRgg_MjnfKO351LVxNz-102" value="comment" style="ellipse;whiteSpace=wrap;html=1;" parent="1" vertex="1">
          <mxGeometry x="537.25" y="770.5" width="92.75" height="40" as="geometry" />
        </mxCell>
        <mxCell id="5VRgg_MjnfKO351LVxNz-103" value="" style="endArrow=none;html=1;rounded=0;exitX=0.25;exitY=1;exitDx=0;exitDy=0;entryX=0.5;entryY=0;entryDx=0;entryDy=0;" parent="1" source="5VRgg_MjnfKO351LVxNz-78" target="5VRgg_MjnfKO351LVxNz-104" edge="1">
          <mxGeometry width="50" height="50" relative="1" as="geometry">
            <mxPoint x="918" y="713.5" as="sourcePoint" />
            <mxPoint x="1049" y="584.5" as="targetPoint" />
          </mxGeometry>
        </mxCell>
        <mxCell id="5VRgg_MjnfKO351LVxNz-104" value="delivery_time" style="ellipse;whiteSpace=wrap;html=1;" parent="1" vertex="1">
          <mxGeometry x="418.5" y="740.5" width="102.75" height="40" as="geometry" />
        </mxCell>
        <mxCell id="1xm9PRXpvViFo6wgVTBk-1" value="" style="endArrow=none;html=1;rounded=0;exitX=0.852;exitY=0.025;exitDx=0;exitDy=0;exitPerimeter=0;entryX=0.5;entryY=1;entryDx=0;entryDy=0;" edge="1" parent="1" source="VyGet-gFBxRApP3kLGEh-1" target="1xm9PRXpvViFo6wgVTBk-21">
          <mxGeometry width="50" height="50" relative="1" as="geometry">
            <mxPoint x="449" y="-109" as="sourcePoint" />
            <mxPoint x="450" y="-240" as="targetPoint" />
          </mxGeometry>
        </mxCell>
        <mxCell id="1xm9PRXpvViFo6wgVTBk-2" value="1" style="edgeLabel;html=1;align=center;verticalAlign=middle;resizable=0;points=[];" vertex="1" connectable="0" parent="1xm9PRXpvViFo6wgVTBk-1">
          <mxGeometry x="-0.7853" y="1" relative="1" as="geometry">
            <mxPoint x="9" y="2" as="offset" />
          </mxGeometry>
        </mxCell>
        <mxCell id="1xm9PRXpvViFo6wgVTBk-3" value="" style="endArrow=none;html=1;rounded=0;exitX=0;exitY=0;exitDx=0;exitDy=0;entryX=0.5;entryY=1;entryDx=0;entryDy=0;" edge="1" parent="1" source="VyGet-gFBxRApP3kLGEh-1" target="1xm9PRXpvViFo6wgVTBk-7">
          <mxGeometry width="50" height="50" relative="1" as="geometry">
            <mxPoint x="447" y="-112" as="sourcePoint" />
            <mxPoint x="240" y="-220" as="targetPoint" />
          </mxGeometry>
        </mxCell>
        <mxCell id="1xm9PRXpvViFo6wgVTBk-4" value="1" style="edgeLabel;html=1;align=center;verticalAlign=middle;resizable=0;points=[];" vertex="1" connectable="0" parent="1xm9PRXpvViFo6wgVTBk-3">
          <mxGeometry x="-0.7853" y="1" relative="1" as="geometry">
            <mxPoint x="9" y="2" as="offset" />
          </mxGeometry>
        </mxCell>
        <mxCell id="1xm9PRXpvViFo6wgVTBk-5" value="" style="endArrow=none;html=1;rounded=0;exitX=1;exitY=0;exitDx=0;exitDy=0;entryX=0.5;entryY=1;entryDx=0;entryDy=0;" edge="1" parent="1" source="VyGet-gFBxRApP3kLGEh-1" target="1xm9PRXpvViFo6wgVTBk-14">
          <mxGeometry width="50" height="50" relative="1" as="geometry">
            <mxPoint x="460" y="-110" as="sourcePoint" />
            <mxPoint x="520" y="-240" as="targetPoint" />
          </mxGeometry>
        </mxCell>
        <mxCell id="1xm9PRXpvViFo6wgVTBk-6" value="1" style="edgeLabel;html=1;align=center;verticalAlign=middle;resizable=0;points=[];" vertex="1" connectable="0" parent="1xm9PRXpvViFo6wgVTBk-5">
          <mxGeometry x="-0.7853" y="1" relative="1" as="geometry">
            <mxPoint x="9" y="2" as="offset" />
          </mxGeometry>
        </mxCell>
        <mxCell id="1xm9PRXpvViFo6wgVTBk-7" value="is" style="rhombus;whiteSpace=wrap;html=1;rotation=-45;" vertex="1" parent="1">
          <mxGeometry x="220" y="-246" width="40" height="40" as="geometry" />
        </mxCell>
        <mxCell id="1xm9PRXpvViFo6wgVTBk-8" value="" style="endArrow=none;html=1;rounded=0;exitX=0.5;exitY=0;exitDx=0;exitDy=0;entryX=1;entryY=1;entryDx=0;entryDy=0;" edge="1" parent="1" source="1xm9PRXpvViFo6wgVTBk-7" target="1xm9PRXpvViFo6wgVTBk-10">
          <mxGeometry width="50" height="50" relative="1" as="geometry">
            <mxPoint x="250" y="-270.00050807568886" as="sourcePoint" />
            <mxPoint x="214" y="-302.68" as="targetPoint" />
          </mxGeometry>
        </mxCell>
        <mxCell id="1xm9PRXpvViFo6wgVTBk-9" value="1" style="edgeLabel;html=1;align=center;verticalAlign=middle;resizable=0;points=[];" vertex="1" connectable="0" parent="1xm9PRXpvViFo6wgVTBk-8">
          <mxGeometry x="0.75" relative="1" as="geometry">
            <mxPoint x="5" y="-2" as="offset" />
          </mxGeometry>
        </mxCell>
        <mxCell id="1xm9PRXpvViFo6wgVTBk-10" value="Food_Product" style="rounded=1;whiteSpace=wrap;html=1;" vertex="1" parent="1">
          <mxGeometry x="115.75" y="-320" width="90" height="40" as="geometry" />
        </mxCell>
        <mxCell id="1xm9PRXpvViFo6wgVTBk-13" value="product_id" style="ellipse;whiteSpace=wrap;html=1;" vertex="1" parent="1">
          <mxGeometry x="10" y="-320" width="80" height="40" as="geometry" />
        </mxCell>
        <mxCell id="1xm9PRXpvViFo6wgVTBk-14" value="is" style="rhombus;whiteSpace=wrap;html=1;rotation=45;" vertex="1" parent="1">
          <mxGeometry x="500" y="-230" width="40" height="40" as="geometry" />
        </mxCell>
        <mxCell id="1xm9PRXpvViFo6wgVTBk-15" value="" style="endArrow=none;html=1;rounded=0;exitX=0.5;exitY=0;exitDx=0;exitDy=0;entryX=0;entryY=0.5;entryDx=0;entryDy=0;" edge="1" source="1xm9PRXpvViFo6wgVTBk-14" target="1xm9PRXpvViFo6wgVTBk-17" parent="1">
          <mxGeometry width="50" height="50" relative="1" as="geometry">
            <mxPoint x="793" y="-300.00050807568886" as="sourcePoint" />
            <mxPoint x="757" y="-332.68" as="targetPoint" />
          </mxGeometry>
        </mxCell>
        <mxCell id="1xm9PRXpvViFo6wgVTBk-16" value="1" style="edgeLabel;html=1;align=center;verticalAlign=middle;resizable=0;points=[];" vertex="1" connectable="0" parent="1xm9PRXpvViFo6wgVTBk-15">
          <mxGeometry x="0.75" relative="1" as="geometry">
            <mxPoint x="-2" y="12" as="offset" />
          </mxGeometry>
        </mxCell>
        <mxCell id="1xm9PRXpvViFo6wgVTBk-17" value="Milk_And_Dairy" style="rounded=1;whiteSpace=wrap;html=1;" vertex="1" parent="1">
          <mxGeometry x="570" y="-280" width="90" height="40" as="geometry" />
        </mxCell>
        <mxCell id="1xm9PRXpvViFo6wgVTBk-18" value="product_id" style="ellipse;whiteSpace=wrap;html=1;" vertex="1" parent="1">
          <mxGeometry x="681" y="-286" width="75" height="30" as="geometry" />
        </mxCell>
        <mxCell id="1xm9PRXpvViFo6wgVTBk-19" value="" style="endArrow=none;html=1;rounded=0;entryX=0;entryY=0.5;entryDx=0;entryDy=0;exitX=1;exitY=0.25;exitDx=0;exitDy=0;" edge="1" target="1xm9PRXpvViFo6wgVTBk-18" parent="1" source="1xm9PRXpvViFo6wgVTBk-17">
          <mxGeometry width="50" height="50" relative="1" as="geometry">
            <mxPoint x="640.75" y="-320" as="sourcePoint" />
            <mxPoint x="630.75" y="-380" as="targetPoint" />
          </mxGeometry>
        </mxCell>
        <mxCell id="1xm9PRXpvViFo6wgVTBk-21" value="is" style="rhombus;whiteSpace=wrap;html=1;rotation=15;" vertex="1" parent="1">
          <mxGeometry x="454" y="-270" width="40" height="40" as="geometry" />
        </mxCell>
        <mxCell id="1xm9PRXpvViFo6wgVTBk-22" value="" style="endArrow=none;html=1;rounded=0;exitX=0.5;exitY=0;exitDx=0;exitDy=0;entryX=0;entryY=1;entryDx=0;entryDy=0;" edge="1" source="1xm9PRXpvViFo6wgVTBk-21" target="1xm9PRXpvViFo6wgVTBk-24" parent="1">
          <mxGeometry width="50" height="50" relative="1" as="geometry">
            <mxPoint x="440" y="-290" as="sourcePoint" />
            <mxPoint x="490" y="-350" as="targetPoint" />
          </mxGeometry>
        </mxCell>
        <mxCell id="1xm9PRXpvViFo6wgVTBk-23" value="1" style="edgeLabel;html=1;align=center;verticalAlign=middle;resizable=0;points=[];" vertex="1" connectable="0" parent="1xm9PRXpvViFo6wgVTBk-22">
          <mxGeometry x="0.418" y="1" relative="1" as="geometry">
            <mxPoint x="15" y="-13" as="offset" />
          </mxGeometry>
        </mxCell>
        <mxCell id="1xm9PRXpvViFo6wgVTBk-28" value="1" style="edgeLabel;html=1;align=center;verticalAlign=middle;resizable=0;points=[];" vertex="1" connectable="0" parent="1xm9PRXpvViFo6wgVTBk-22">
          <mxGeometry x="0.5535" relative="1" as="geometry">
            <mxPoint x="7" y="2" as="offset" />
          </mxGeometry>
        </mxCell>
        <mxCell id="1xm9PRXpvViFo6wgVTBk-24" value="Cosmetic" style="rounded=1;whiteSpace=wrap;html=1;" vertex="1" parent="1">
          <mxGeometry x="494" y="-340" width="100" height="40" as="geometry" />
        </mxCell>
        <mxCell id="1xm9PRXpvViFo6wgVTBk-25" value="" style="endArrow=none;html=1;rounded=0;entryX=0.325;entryY=1.033;entryDx=0;entryDy=0;exitX=1;exitY=0;exitDx=0;exitDy=0;entryPerimeter=0;" edge="1" source="1xm9PRXpvViFo6wgVTBk-24" target="1xm9PRXpvViFo6wgVTBk-26" parent="1">
          <mxGeometry width="50" height="50" relative="1" as="geometry">
            <mxPoint x="385" y="-410" as="sourcePoint" />
            <mxPoint x="407" y="-380" as="targetPoint" />
          </mxGeometry>
        </mxCell>
        <mxCell id="1xm9PRXpvViFo6wgVTBk-26" value="product_id" style="ellipse;whiteSpace=wrap;html=1;" vertex="1" parent="1">
          <mxGeometry x="580" y="-390" width="80" height="30" as="geometry" />
        </mxCell>
        <mxCell id="1xm9PRXpvViFo6wgVTBk-29" value="" style="endArrow=none;html=1;rounded=0;entryX=1;entryY=0.5;entryDx=0;entryDy=0;exitX=0;exitY=0.5;exitDx=0;exitDy=0;" edge="1" parent="1" source="1xm9PRXpvViFo6wgVTBk-10" target="1xm9PRXpvViFo6wgVTBk-13">
          <mxGeometry width="50" height="50" relative="1" as="geometry">
            <mxPoint x="210" y="-370" as="sourcePoint" />
            <mxPoint x="157" y="-360" as="targetPoint" />
          </mxGeometry>
        </mxCell>
        <mxCell id="1xm9PRXpvViFo6wgVTBk-30" value="" style="endArrow=none;html=1;rounded=0;exitX=1;exitY=0.25;exitDx=0;exitDy=0;entryX=0.5;entryY=1;entryDx=0;entryDy=0;" edge="1" target="1xm9PRXpvViFo6wgVTBk-42" parent="1" source="VyGet-gFBxRApP3kLGEh-1">
          <mxGeometry width="50" height="50" relative="1" as="geometry">
            <mxPoint x="480" y="-55" as="sourcePoint" />
            <mxPoint x="543.1078643762692" y="-140.85786437626894" as="targetPoint" />
          </mxGeometry>
        </mxCell>
        <mxCell id="1xm9PRXpvViFo6wgVTBk-31" value="1" style="edgeLabel;html=1;align=center;verticalAlign=middle;resizable=0;points=[];" vertex="1" connectable="0" parent="1xm9PRXpvViFo6wgVTBk-30">
          <mxGeometry x="-0.7853" y="1" relative="1" as="geometry">
            <mxPoint x="9" y="2" as="offset" />
          </mxGeometry>
        </mxCell>
        <mxCell id="1xm9PRXpvViFo6wgVTBk-33" value="" style="endArrow=none;html=1;rounded=0;exitX=0.5;exitY=0;exitDx=0;exitDy=0;entryX=0;entryY=0.5;entryDx=0;entryDy=0;" edge="1" source="1xm9PRXpvViFo6wgVTBk-42" target="1xm9PRXpvViFo6wgVTBk-35" parent="1">
          <mxGeometry width="50" height="50" relative="1" as="geometry">
            <mxPoint x="571.3921356237308" y="-169.14213562373106" as="sourcePoint" />
            <mxPoint x="800" y="-267.68" as="targetPoint" />
          </mxGeometry>
        </mxCell>
        <mxCell id="1xm9PRXpvViFo6wgVTBk-34" value="1" style="edgeLabel;html=1;align=center;verticalAlign=middle;resizable=0;points=[];" vertex="1" connectable="0" parent="1xm9PRXpvViFo6wgVTBk-33">
          <mxGeometry x="0.75" relative="1" as="geometry">
            <mxPoint x="-2" y="12" as="offset" />
          </mxGeometry>
        </mxCell>
        <mxCell id="1xm9PRXpvViFo6wgVTBk-35" value="Confectionery" style="rounded=1;whiteSpace=wrap;html=1;" vertex="1" parent="1">
          <mxGeometry x="650" y="-180" width="90" height="40" as="geometry" />
        </mxCell>
        <mxCell id="1xm9PRXpvViFo6wgVTBk-36" value="" style="endArrow=none;html=1;rounded=0;entryX=0;entryY=0.5;entryDx=0;entryDy=0;exitX=1;exitY=0.25;exitDx=0;exitDy=0;" edge="1" source="1xm9PRXpvViFo6wgVTBk-35" target="1xm9PRXpvViFo6wgVTBk-37" parent="1">
          <mxGeometry width="50" height="50" relative="1" as="geometry">
            <mxPoint x="683.75" y="-255" as="sourcePoint" />
            <mxPoint x="673.75" y="-315" as="targetPoint" />
          </mxGeometry>
        </mxCell>
        <mxCell id="1xm9PRXpvViFo6wgVTBk-37" value="product_id" style="ellipse;whiteSpace=wrap;html=1;" vertex="1" parent="1">
          <mxGeometry x="765" y="-190" width="75" height="30" as="geometry" />
        </mxCell>
        <mxCell id="1xm9PRXpvViFo6wgVTBk-42" value="is" style="rhombus;whiteSpace=wrap;html=1;rotation=75;" vertex="1" parent="1">
          <mxGeometry x="543" y="-160" width="40" height="40" as="geometry" />
        </mxCell>
        <mxCell id="1xm9PRXpvViFo6wgVTBk-48" value="" style="endArrow=none;html=1;rounded=0;entryX=0.25;entryY=0;entryDx=0;entryDy=0;exitX=0.5;exitY=1;exitDx=0;exitDy=0;" edge="1" parent="1" source="1xm9PRXpvViFo6wgVTBk-49" target="VyGet-gFBxRApP3kLGEh-45">
          <mxGeometry width="50" height="50" relative="1" as="geometry">
            <mxPoint x="320" y="-470" as="sourcePoint" />
            <mxPoint x="370" y="-390" as="targetPoint" />
          </mxGeometry>
        </mxCell>
        <mxCell id="1xm9PRXpvViFo6wgVTBk-49" value="is_alcoholic" style="ellipse;whiteSpace=wrap;html=1;" vertex="1" parent="1">
          <mxGeometry x="320" y="-590" width="80" height="30" as="geometry" />
        </mxCell>
        <mxCell id="1xm9PRXpvViFo6wgVTBk-50" value="is_carbonated" style="ellipse;whiteSpace=wrap;html=1;" vertex="1" parent="1">
          <mxGeometry x="260" y="-550" width="90" height="30" as="geometry" />
        </mxCell>
        <mxCell id="1xm9PRXpvViFo6wgVTBk-51" value="" style="endArrow=none;html=1;rounded=0;entryX=0.092;entryY=-0.025;entryDx=0;entryDy=0;entryPerimeter=0;exitX=0.5;exitY=1;exitDx=0;exitDy=0;" edge="1" source="1xm9PRXpvViFo6wgVTBk-50" parent="1" target="VyGet-gFBxRApP3kLGEh-45">
          <mxGeometry width="50" height="50" relative="1" as="geometry">
            <mxPoint x="280" y="-490" as="sourcePoint" />
            <mxPoint x="344" y="-390" as="targetPoint" />
          </mxGeometry>
        </mxCell>
        <mxCell id="1xm9PRXpvViFo6wgVTBk-53" value="" style="rounded=1;whiteSpace=wrap;html=1;" vertex="1" parent="1">
          <mxGeometry x="283" y="523.5" width="95.5" height="57" as="geometry" />
        </mxCell>
        <mxCell id="1xm9PRXpvViFo6wgVTBk-54" value="order_buyer&lt;div&gt;_review&lt;/div&gt;" style="rhombus;whiteSpace=wrap;html=1;" vertex="1" parent="1">
          <mxGeometry x="284" y="523.5" width="94.5" height="57" as="geometry" />
        </mxCell>
        <mxCell id="1xm9PRXpvViFo6wgVTBk-55" value="id" style="ellipse;whiteSpace=wrap;html=1;" vertex="1" parent="1">
          <mxGeometry x="194.5" y="495" width="57" height="37" as="geometry" />
        </mxCell>
        <mxCell id="1xm9PRXpvViFo6wgVTBk-56" value="" style="endArrow=none;html=1;rounded=0;entryX=1;entryY=1;entryDx=0;entryDy=0;exitX=0;exitY=0.25;exitDx=0;exitDy=0;" edge="1" target="1xm9PRXpvViFo6wgVTBk-55" parent="1" source="1xm9PRXpvViFo6wgVTBk-53">
          <mxGeometry width="50" height="50" relative="1" as="geometry">
            <mxPoint x="275.75" y="542" as="sourcePoint" />
            <mxPoint x="267.75" y="442" as="targetPoint" />
          </mxGeometry>
        </mxCell>
        <mxCell id="1xm9PRXpvViFo6wgVTBk-57" value="order_id" style="ellipse;whiteSpace=wrap;html=1;" vertex="1" parent="1">
          <mxGeometry x="120.88" y="512" width="71.25" height="40" as="geometry" />
        </mxCell>
        <mxCell id="1xm9PRXpvViFo6wgVTBk-58" value="" style="endArrow=none;html=1;rounded=0;exitX=0;exitY=0.5;exitDx=0;exitDy=0;entryX=1;entryY=1;entryDx=0;entryDy=0;" edge="1" target="1xm9PRXpvViFo6wgVTBk-57" parent="1" source="1xm9PRXpvViFo6wgVTBk-54">
          <mxGeometry width="50" height="50" relative="1" as="geometry">
            <mxPoint x="241.75" y="562" as="sourcePoint" />
            <mxPoint x="196.75" y="572" as="targetPoint" />
          </mxGeometry>
        </mxCell>
        <mxCell id="1xm9PRXpvViFo6wgVTBk-59" value="buyer_review_id" style="ellipse;whiteSpace=wrap;html=1;" vertex="1" parent="1">
          <mxGeometry x="95.75" y="557.75" width="106.38" height="40" as="geometry" />
        </mxCell>
        <mxCell id="1xm9PRXpvViFo6wgVTBk-60" value="" style="endArrow=none;html=1;rounded=0;exitX=0;exitY=0.75;exitDx=0;exitDy=0;entryX=1;entryY=0.5;entryDx=0;entryDy=0;" edge="1" target="1xm9PRXpvViFo6wgVTBk-59" parent="1" source="1xm9PRXpvViFo6wgVTBk-53">
          <mxGeometry width="50" height="50" relative="1" as="geometry">
            <mxPoint x="283" y="602" as="sourcePoint" />
            <mxPoint x="206.75" y="617.75" as="targetPoint" />
          </mxGeometry>
        </mxCell>
        <mxCell id="1xm9PRXpvViFo6wgVTBk-61" value="" style="rounded=1;whiteSpace=wrap;html=1;" vertex="1" parent="1">
          <mxGeometry x="400" y="522" width="110" height="60" as="geometry" />
        </mxCell>
        <mxCell id="1xm9PRXpvViFo6wgVTBk-62" value="order_supplier&lt;div&gt;_review&lt;/div&gt;" style="rhombus;whiteSpace=wrap;html=1;" vertex="1" parent="1">
          <mxGeometry x="401" y="524" width="109" height="57" as="geometry" />
        </mxCell>
        <mxCell id="1xm9PRXpvViFo6wgVTBk-63" value="id" style="ellipse;whiteSpace=wrap;html=1;" vertex="1" parent="1">
          <mxGeometry x="540" y="490" width="50" height="32" as="geometry" />
        </mxCell>
        <mxCell id="1xm9PRXpvViFo6wgVTBk-64" value="" style="endArrow=none;html=1;rounded=0;entryX=0;entryY=1;entryDx=0;entryDy=0;exitX=1;exitY=0.25;exitDx=0;exitDy=0;" edge="1" target="1xm9PRXpvViFo6wgVTBk-63" parent="1" source="1xm9PRXpvViFo6wgVTBk-61">
          <mxGeometry width="50" height="50" relative="1" as="geometry">
            <mxPoint x="537.25" y="531.25" as="sourcePoint" />
            <mxPoint x="537.3223304703363" y="519.3137084989849" as="targetPoint" />
          </mxGeometry>
        </mxCell>
        <mxCell id="1xm9PRXpvViFo6wgVTBk-65" value="order_id" style="ellipse;whiteSpace=wrap;html=1;" vertex="1" parent="1">
          <mxGeometry x="596.38" y="510.5" width="80" height="34.25" as="geometry" />
        </mxCell>
        <mxCell id="1xm9PRXpvViFo6wgVTBk-66" value="" style="endArrow=none;html=1;rounded=0;exitX=1;exitY=0.5;exitDx=0;exitDy=0;entryX=0;entryY=0.5;entryDx=0;entryDy=0;" edge="1" target="1xm9PRXpvViFo6wgVTBk-65" parent="1" source="1xm9PRXpvViFo6wgVTBk-61">
          <mxGeometry width="50" height="50" relative="1" as="geometry">
            <mxPoint x="537.25" y="546.25" as="sourcePoint" />
            <mxPoint x="664.07" y="555.5" as="targetPoint" />
          </mxGeometry>
        </mxCell>
        <mxCell id="1xm9PRXpvViFo6wgVTBk-67" value="" style="endArrow=none;html=1;rounded=0;exitX=1;exitY=0.75;exitDx=0;exitDy=0;entryX=0;entryY=0.5;entryDx=0;entryDy=0;" edge="1" target="1xm9PRXpvViFo6wgVTBk-68" parent="1" source="1xm9PRXpvViFo6wgVTBk-61">
          <mxGeometry width="50" height="50" relative="1" as="geometry">
            <mxPoint x="450.07" y="460.88" as="sourcePoint" />
            <mxPoint x="610.07" y="584.38" as="targetPoint" />
          </mxGeometry>
        </mxCell>
        <mxCell id="1xm9PRXpvViFo6wgVTBk-68" value="supplier_review_id" style="ellipse;whiteSpace=wrap;html=1;" vertex="1" parent="1">
          <mxGeometry x="590" y="556.25" width="110" height="40" as="geometry" />
        </mxCell>
        <mxCell id="1xm9PRXpvViFo6wgVTBk-69" value="supplier_id" style="ellipse;whiteSpace=wrap;html=1;" vertex="1" parent="1">
          <mxGeometry x="146.75" y="260" width="80" height="40" as="geometry" />
        </mxCell>
        <mxCell id="1xm9PRXpvViFo6wgVTBk-70" value="" style="endArrow=none;html=1;rounded=0;entryX=1;entryY=1;entryDx=0;entryDy=0;exitX=0;exitY=0.25;exitDx=0;exitDy=0;" edge="1" target="1xm9PRXpvViFo6wgVTBk-69" parent="1" source="5VRgg_MjnfKO351LVxNz-29">
          <mxGeometry width="50" height="50" relative="1" as="geometry">
            <mxPoint x="216" y="325" as="sourcePoint" />
            <mxPoint x="184" y="345" as="targetPoint" />
          </mxGeometry>
        </mxCell>
      </root>
    </mxGraphModel>
  </diagram>
</mxfile>
